<svg width="29" height="29" viewBox="0 0 29 29" fill="none" xmlns="http://www.w3.org/2000/svg">
<circle cx="14.5" cy="14.5" r="14.5" fill="#E3B100"/>
<path d="M20.3499 13.85H15.15V8.64996C15.15 8.29124 14.8588 8 14.4999 8C14.1412 8 13.85 8.29124 13.85 8.64996V13.85H8.64996C8.29124 13.85 8 14.1412 8 14.4999C8 14.8588 8.29124 15.15 8.64996 15.15H13.85V20.3499C13.85 20.7088 14.1412 21 14.4999 21C14.8588 21 15.15 20.7088 15.15 20.3499V15.15H20.3499C20.7088 15.15 21 14.8588 21 14.4999C21 14.1412 20.7088 13.85 20.3499 13.85Z" fill="white"/>
</svg>
