<svg width="24" height="24" viewBox="0 0 24 24" fill="none" xmlns="http://www.w3.org/2000/svg">
<path d="M20.1641 2.71875H18.1875V1.6875C18.1875 1.30783 17.8797 1 17.5 1C17.1203 1 16.8125 1.30783 16.8125 1.6875V2.71875H7.1875V1.6875C7.1875 1.30783 6.87971 1 6.5 1C6.12029 1 5.8125 1.30783 5.8125 1.6875V2.71875H3.83594C2.27218 2.71875 1 3.99093 1 5.55469V20.1641C1 21.7278 2.27218 23 3.83594 23H20.1641C21.7278 23 23 21.7278 23 20.1641V5.55469C23 3.99093 21.7278 2.71875 20.1641 2.71875ZM3.83594 4.09375H5.8125V4.78125C5.8125 5.16092 6.12029 5.46875 6.5 5.46875C6.87971 5.46875 7.1875 5.16092 7.1875 4.78125V4.09375H16.8125V4.78125C16.8125 5.16092 17.1203 5.46875 17.5 5.46875C17.8797 5.46875 18.1875 5.16092 18.1875 4.78125V4.09375H20.1641C20.9696 4.09375 21.625 4.74911 21.625 5.55469V7.1875H2.375V5.55469C2.375 4.74911 3.03036 4.09375 3.83594 4.09375ZM20.1641 21.625H3.83594C3.03036 21.625 2.375 20.9696 2.375 20.1641V8.5625H21.625V20.1641C21.625 20.9696 20.9696 21.625 20.1641 21.625Z" fill="#73768B" stroke="#73768B"/>
</svg>
