<svg width="22" height="32" viewBox="0 0 22 32" fill="none" xmlns="http://www.w3.org/2000/svg">
                                <path d="M21.8063 14.5804C21.7251 14.3757 21.5355 14.2421 21.3252 14.2421H15.6198V0.556713C15.6198 0.254538 15.3865 0.00927734 15.0991 0.00927734H6.76858C6.48118 0.00927734 6.24791 0.254538 6.24791 0.556713V14.2422H0.520671C0.310341 14.2422 0.120805 14.3758 0.0395817 14.5794C-0.0406161 14.7841 0.00311917 15.0195 0.152044 15.1761L10.5392 26.1332C10.6371 26.2361 10.7693 26.2942 10.9078 26.2942C11.0463 26.2942 11.1786 26.2361 11.2764 26.1343L21.6938 15.1772C21.8427 15.0206 21.8875 14.7852 21.8063 14.5804Z" fill="#2DA82D"></path>
                                <rect x="1" y="31" width="19" height="1" rx="0.5" fill="#2DA82D"></rect>
                              </svg>