<svg width="17" height="17" viewBox="0 0 17 17" fill="none" xmlns="http://www.w3.org/2000/svg">
<path fill-rule="evenodd" clip-rule="evenodd" d="M6.8 0C3.04446 0 0 3.04446 0 6.8C0 10.5555 3.04446 13.6 6.8 13.6C10.5555 13.6 13.6 10.5555 13.6 6.8C13.6 3.04446 10.5555 0 6.8 0ZM2.55 6.8C2.55 4.45279 4.45279 2.55 6.8 2.55C9.14721 2.55 11.05 4.45279 11.05 6.8C11.05 9.14721 9.14721 11.05 6.8 11.05C4.45279 11.05 2.55 9.14721 2.55 6.8Z" fill="#0D0E18"/>
<path d="M13.175 11.3719L11.3719 13.175L14.8234 16.6266C15.3214 17.1245 16.1286 17.1245 16.6266 16.6266C17.1245 16.1286 17.1245 15.3214 16.6266 14.8234L13.175 11.3719Z" fill="#0D0E18"/>
</svg>
